 http://desibbrg.org/images/66952052392581364616.gif 
http://desibbrg.org/images/08267962083635276633.jpg 
http://desibbrg.org/images/24808531868928350939.jpg

Media Info - 
General
Complete name : Rajdhani Expresss( 2012) Scam - Team IcFg Exclusive.m4v
Format : MPEG-4
Format profile : Base Media / Version 2
Codec ID : mp42
File size : 393 MiB
Duration : 1h 51mn
Overall bit rate mode : Variable
Overall bit rate : 491 Kbps
Encoded date : UTC 2013-01-04 15:52:48
Tagged date : UTC 2013-01-04 15:56:55
Writing application : HandBrake 0.9.8 2012071700

Video
ID : 1
Format : AVC
Format/Info : Advanced Video Codec
Format profile : Main@L1.3
Format settings, CABAC : Yes
Format settings, ReFrames : 4 frames
Codec ID : avc1
Codec ID/Info : Advanced Video Coding
Duration : 1h 51mn
Bit rate mode : Variable
Bit rate : 327 Kbps
Width : 352 pixels
Height : 272 pixels
Display aspect ratio : 2.045
Original display aspect ratio : 2.044
Frame rate mode : Constant
Frame rate : 25.000 fps
Color space : YUV
Chroma subsampling : 4:2:0
Bit depth : 8 bits
Scan type : Progressive
Bits/(Pixel*Frame) : 0.137
Stream size : 261 MiB (67%)
Writing library : x264 core 120

Audio
ID : 2
Format : AAC
Format/Info : Advanced Audio Codec
Format profile : LC
Codec ID : 40
Duration : 1h 51mn
Bit rate mode : Variable
Bit rate : 160 Kbps
Maximum bit rate : 204 Kbps
Channel(s) : 2 channels
Channel positions : Front: L R
Sampling rate : 48.0 KHz
Compression mode : Lossy
Delay relative to video : -80ms
Stream size : 128 MiB (33%)
Language : English
Encoded date : UTC 2013-01-04 15:52:48
Tagged date : UTC 2013-01-04 15:56:53

Text
ID : 3
Format : Apple text
Codec ID : text
Duration : 1h 51mn
Bit rate mode : Variable
Bit rate : 1 bps
Stream size : 711 Bytes (0%)
Encoded date : UTC 2013-01-04 15:52:48
Tagged date : UTC 2013-01-04 15:56:55

Ripper : Sankalp Samant

Seeding 24x7... Extreme Seeding...


Enjoy!
